<svg width="24" height="22" viewBox="0 0 24 22" fill="none" xmlns="http://www.w3.org/2000/svg">
<path d="M12 1.81396C9.81276 1.81618 7.71584 2.56242 6.16923 3.88899C4.62261 5.21556 3.75259 7.01415 3.75001 8.8902C3.74739 10.4233 4.33124 11.9148 5.41201 13.1359C5.41201 13.1359 5.63701 13.39 5.67376 13.4267L12 19.8262L18.3293 13.4235C18.3623 13.3894 18.588 13.1359 18.588 13.1359L18.5888 13.134C19.669 11.9134 20.2526 10.4226 20.25 8.8902C20.2474 7.01415 19.3774 5.21556 17.8308 3.88899C16.2842 2.56242 14.1873 1.81618 12 1.81396ZM12 11.4634C11.4067 11.4634 10.8266 11.3125 10.3333 11.0297C9.83995 10.747 9.45543 10.3451 9.22837 9.87492C9.00131 9.40473 8.9419 8.88735 9.05765 8.3882C9.17341 7.88905 9.45913 7.43056 9.87869 7.07069C10.2982 6.71083 10.8328 6.46575 11.4147 6.36647C11.9967 6.26718 12.5999 6.31814 13.1481 6.5129C13.6962 6.70765 14.1648 7.03747 14.4944 7.46062C14.8241 7.88378 15 8.38128 15 8.8902C14.999 9.57239 14.6826 10.2264 14.1202 10.7088C13.5578 11.1912 12.7954 11.4625 12 11.4634Z" fill="white"/>
</svg>
