<svg width="40" height="40" viewBox="0 0 40 40" fill="none" xmlns="http://www.w3.org/2000/svg">
<path d="M27.6101 33.4932L31.8267 29.2765V32.7248H33.1101V27.0832H27.4667V28.3665H30.9151L26.6984 32.5832L27.6101 33.4932ZM30.0001 36.8598C28.1434 36.8598 26.5684 36.2126 25.2751 34.9182C23.9806 33.6248 23.3334 32.0498 23.3334 30.1932C23.3334 28.3365 23.9806 26.7609 25.2751 25.4665C26.5695 24.1721 28.1445 23.5254 30.0001 23.5265C31.8556 23.5276 33.4312 24.1743 34.7267 25.4665C36.0223 26.7587 36.669 28.3343 36.6667 30.1932C36.6667 32.0487 36.0201 33.6237 34.7267 34.9182C33.4312 36.2126 31.8556 36.8598 30.0001 36.8598ZM12.5001 14.5498H27.5001V12.8832H12.5001V14.5498ZM19.2017 33.3332H9.36008C8.61341 33.3332 7.97786 33.0709 7.45341 32.5465C6.92897 32.0221 6.66675 31.3871 6.66675 30.6415V9.35817C6.66675 8.61373 6.92897 7.97873 7.45341 7.45317C7.97786 6.92873 8.61341 6.6665 9.36008 6.6665H30.6417C31.3862 6.6665 32.0212 6.92873 32.5467 7.45317C33.0712 7.97762 33.3334 8.61317 33.3334 9.35984V19.2765C32.7845 19.1009 32.234 18.9637 31.6817 18.8648C31.1284 18.7671 30.5679 18.7182 30.0001 18.7182C29.4379 18.7182 28.8912 18.7626 28.3601 18.8515C27.8301 18.9404 27.3084 19.0659 26.7951 19.2282V19.1665H12.5001V20.8332H23.4784C22.6362 21.4121 21.8962 22.0915 21.2584 22.8715C20.6206 23.6515 20.0956 24.5104 19.6834 25.4482H12.5001V27.1148H19.1001C18.9801 27.5848 18.8862 28.0587 18.8184 28.5365C18.7517 29.0143 18.7184 29.5021 18.7184 29.9998C18.7184 30.5109 18.7484 31.0715 18.8084 31.6815C18.8684 32.2915 18.9995 32.8421 19.2017 33.3332Z" fill="white"/>
</svg>
