<svg width="24" height="21" viewBox="0 0 24 21" fill="none" xmlns="http://www.w3.org/2000/svg">
<path d="M20.0002 9.62102H22.0002C22.0002 5.22088 18.1272 1.90234 12.9902 1.90234V3.6178C17.0522 3.6178 20.0002 6.14208 20.0002 9.62102Z" fill="white"/>
<path d="M13.0003 7.04863C15.1033 7.04863 16.0003 7.81801 16.0003 9.62181H18.0003C18.0003 6.85564 16.2253 5.33318 13.0003 5.33318V7.04863ZM16.4223 11.7172C16.2301 11.5674 15.9776 11.4875 15.7181 11.4944C15.4585 11.5013 15.2123 11.5944 15.0313 11.7541L12.6383 13.865C12.0623 13.7706 10.9043 13.461 9.71228 12.4412C8.52028 11.4179 8.15928 10.4221 8.05228 9.93145L10.5113 7.87805C10.6977 7.72291 10.8064 7.51165 10.8144 7.28897C10.8225 7.06629 10.7292 6.84967 10.5543 6.68496L6.85928 3.20002C6.68432 3.03478 6.44116 2.93455 6.18143 2.92062C5.92171 2.90669 5.66588 2.98014 5.46828 3.12539L3.29828 4.72162C3.12539 4.87045 3.0222 5.06853 3.00828 5.27828C2.99328 5.49272 2.70728 10.5722 7.29928 14.5126C11.3053 17.9478 16.3233 18.1991 17.7053 18.1991C17.9073 18.1991 18.0313 18.1939 18.0643 18.1922C18.3088 18.1805 18.5396 18.0916 18.7123 17.9426L20.5723 16.0805C20.7417 15.9111 20.8276 15.6917 20.8115 15.469C20.7954 15.2462 20.6788 15.0376 20.4863 14.8874L16.4223 11.7172Z" fill="white"/>
</svg>
