<svg width="29" height="29" viewBox="0 0 29 29" fill="none" xmlns="http://www.w3.org/2000/svg">
<path d="M14.4999 20.5417C12.8284 20.5417 11.4038 19.9524 10.226 18.7739C9.04833 17.5954 8.45906 16.1707 8.45826 14.5C8.45745 12.8293 9.04672 11.4047 10.226 10.2261C11.4054 9.04761 12.83 8.45835 14.4999 8.45835C16.1698 8.45835 17.5949 9.04761 18.775 10.2261C19.9551 11.4047 20.544 12.8293 20.5416 14.5C20.5392 16.1707 19.9499 17.5958 18.7738 18.7751C17.5977 19.9544 16.1731 20.5433 14.4999 20.5417ZM2.41659 15.7084C2.07423 15.7084 1.78745 15.5924 1.55626 15.3603C1.32506 15.1284 1.20906 14.8416 1.20826 14.5C1.20745 14.1585 1.32345 13.8717 1.55626 13.6397C1.78906 13.4077 2.07584 13.2917 2.41659 13.2917H4.83326C5.17562 13.2917 5.4628 13.4077 5.6948 13.6397C5.9268 13.8717 6.0424 14.1585 6.04159 14.5C6.04078 14.8416 5.92478 15.1288 5.69359 15.3616C5.4624 15.5944 5.17562 15.71 4.83326 15.7084H2.41659ZM24.1666 15.7084C23.8242 15.7084 23.5375 15.5924 23.3063 15.3603C23.0751 15.1284 22.9591 14.8416 22.9583 14.5C22.9575 14.1585 23.0735 13.8717 23.3063 13.6397C23.5391 13.4077 23.8258 13.2917 24.1666 13.2917H26.5833C26.9256 13.2917 27.2128 13.4077 27.4448 13.6397C27.6768 13.8717 27.7924 14.1585 27.7916 14.5C27.7908 14.8416 27.6748 15.1288 27.4436 15.3616C27.2124 15.5944 26.9256 15.71 26.5833 15.7084H24.1666ZM14.4999 6.04168C14.1576 6.04168 13.8708 5.92568 13.6396 5.69368C13.4084 5.46168 13.2924 5.1749 13.2916 4.83335V2.41668C13.2916 2.07432 13.4076 1.78754 13.6396 1.55635C13.8716 1.32515 14.1584 1.20915 14.4999 1.20835C14.8415 1.20754 15.1287 1.32354 15.3615 1.55635C15.5943 1.78915 15.7099 2.07593 15.7083 2.41668V4.83335C15.7083 5.17571 15.5923 5.46289 15.3603 5.69489C15.1283 5.92689 14.8415 6.04249 14.4999 6.04168ZM14.4999 27.7917C14.1576 27.7917 13.8708 27.6757 13.6396 27.4437C13.4084 27.2117 13.2924 26.9249 13.2916 26.5834V24.1667C13.2916 23.8243 13.4076 23.5375 13.6396 23.3064C13.8716 23.0752 14.1584 22.9592 14.4999 22.9584C14.8415 22.9575 15.1287 23.0735 15.3615 23.3064C15.5943 23.5392 15.7099 23.8259 15.7083 24.1667V26.5834C15.7083 26.9257 15.5923 27.2129 15.3603 27.4449C15.1283 27.6769 14.8415 27.7925 14.4999 27.7917ZM6.82701 8.51877L5.52805 7.25001C5.28638 7.02849 5.17038 6.74654 5.18005 6.40418C5.18972 6.06182 5.30571 5.76981 5.52805 5.52814C5.76971 5.28647 6.06173 5.16564 6.40409 5.16564C6.74645 5.16564 7.0284 5.28647 7.24992 5.52814L8.51867 6.8271C8.7402 7.06877 8.85097 7.35071 8.85097 7.67293C8.85097 7.99515 8.7402 8.2771 8.51867 8.51877C8.29715 8.76043 8.02044 8.87643 7.68855 8.86677C7.35666 8.8571 7.06948 8.7411 6.82701 8.51877ZM21.7499 23.4719L20.4812 22.1729C20.2596 21.9313 20.1489 21.6445 20.1489 21.3126C20.1489 20.9807 20.2596 20.7036 20.4812 20.4813C20.7027 20.2396 20.9798 20.124 21.3125 20.1345C21.6452 20.1449 21.932 20.2605 22.1728 20.4813L23.4718 21.75C23.7135 21.9715 23.8295 22.2535 23.8198 22.5959C23.8101 22.9382 23.6941 23.2302 23.4718 23.4719C23.2301 23.7136 22.9381 23.8344 22.5958 23.8344C22.2534 23.8344 21.9715 23.7136 21.7499 23.4719ZM20.4812 8.51877C20.2395 8.29724 20.1235 8.02053 20.1332 7.68864C20.1428 7.35675 20.2588 7.06957 20.4812 6.8271L21.7499 5.52814C21.9715 5.28647 22.2534 5.17047 22.5958 5.18014C22.9381 5.18981 23.2301 5.30581 23.4718 5.52814C23.7135 5.76981 23.8343 6.06182 23.8343 6.40418C23.8343 6.74654 23.7135 7.02849 23.4718 7.25001L22.1728 8.51877C21.9312 8.74029 21.6492 8.85106 21.327 8.85106C21.0048 8.85106 20.7228 8.74029 20.4812 8.51877ZM5.52805 23.4719C5.28638 23.2302 5.16555 22.9382 5.16555 22.5959C5.16555 22.2535 5.28638 21.9715 5.52805 21.75L6.82701 20.4813C7.06867 20.2597 7.35545 20.149 7.68734 20.149C8.01923 20.149 8.29634 20.2597 8.51867 20.4813C8.76034 20.7028 8.87634 20.9799 8.86667 21.3126C8.85701 21.6453 8.74101 21.9321 8.51867 22.1729L7.24992 23.4719C7.0284 23.7136 6.74645 23.8296 6.40409 23.8199C6.06173 23.8102 5.76971 23.6942 5.52805 23.4719Z" fill="white"/>
</svg>
